<?xml version="1.0" encoding="UTF-8" standalone="no"?>
<svg
   xmlns:dc="http://purl.org/dc/elements/1.1/"
   xmlns:cc="http://creativecommons.org/ns#"
   xmlns:rdf="http://www.w3.org/1999/02/22-rdf-syntax-ns#"
   xmlns:svg="http://www.w3.org/2000/svg"
   xmlns="http://www.w3.org/2000/svg"
   xmlns:sodipodi="http://sodipodi.sourceforge.net/DTD/sodipodi-0.dtd"
   xmlns:inkscape="http://www.inkscape.org/namespaces/inkscape"
   viewBox="0 0 902.59798 170.91949"
   height="170.91949"
   width="902.59796"
   version="1.1"
   id="svg4136"
   inkscape:version="0.91 r13725"
   sodipodi:docname="logo.svg">
  <sodipodi:namedview
     pagecolor="#ffffff"
     bordercolor="#666666"
     borderopacity="1"
     objecttolerance="10"
     gridtolerance="10"
     guidetolerance="10"
     inkscape:pageopacity="0"
     inkscape:pageshadow="2"
     inkscape:window-width="1600"
     inkscape:window-height="825"
     id="namedview10"
     showgrid="false"
     fit-margin-left="10"
     fit-margin-top="1"
     fit-margin-bottom="1"
     fit-margin-right="10"
     inkscape:zoom="0.56093177"
     inkscape:cx="141.96869"
     inkscape:cy="-122.0699"
     inkscape:window-x="-9"
     inkscape:window-y="-9"
     inkscape:window-maximized="1"
     inkscape:current-layer="g4217" />
  <metadata
     id="metadata4142">
    <rdf:RDF>
      <cc:Work
         rdf:about="">
        <dc:format>image/svg+xml</dc:format>
        <dc:type
           rdf:resource="http://purl.org/dc/dcmitype/StillImage" />
        <dc:title></dc:title>
      </cc:Work>
    </rdf:RDF>
  </metadata>
  <defs
     id="defs4140" />
  <text
     xml:space="preserve"
     style="font-style:normal;font-variant:normal;font-weight:bold;font-stretch:normal;font-size:106.25px;line-height:125%;font-family:Georgia;-inkscape-font-specification:'Georgia Bold';letter-spacing:0px;word-spacing:0px;fill:#d9d7d9;fill-opacity:1;stroke:#000000;stroke-width:2;stroke-linecap:butt;stroke-linejoin:miter;stroke-miterlimit:4;stroke-dasharray:none;stroke-opacity:1"
     x="7.4202881"
     y="90.502121"
     id="text4138"
     sodipodi:linespacing="125%"><tspan
       sodipodi:role="line"
       id="tspan4140"
       x="7.4202881"
       y="90.502121"
       style="font-style:normal;font-variant:normal;font-weight:bold;font-stretch:normal;font-size:106.25px;font-family:Georgia;-inkscape-font-specification:'Georgia Bold';fill:#d9d7d9;fill-opacity:1;stroke:#000000;stroke-width:2;stroke-miterlimit:4;stroke-dasharray:none;stroke-opacity:1">ГарантАвто</tspan></text>
  <text
     xml:space="preserve"
     style="font-style:normal;font-variant:normal;font-weight:bold;font-stretch:normal;font-size:40px;line-height:125%;font-family:sans-serif;-inkscape-font-specification:'sans-serif Bold';letter-spacing:0px;word-spacing:0px;fill:#d9d7d9;fill-opacity:1;stroke:#000000;stroke-width:1px;stroke-linecap:butt;stroke-linejoin:miter;stroke-opacity:1"
     x="31.333862"
     y="148.48941"
     id="text4142"
     sodipodi:linespacing="125%"><tspan
       sodipodi:role="line"
       id="tspan4144"
       x="31.333862"
       y="148.48941">контрактные автозапчасти</tspan></text>
  <rect
     style="opacity:0.58800001;fill:#000000;fill-opacity:0;stroke:none;stroke-width:2;stroke-linecap:round;stroke-miterlimit:4;stroke-dasharray:none;stroke-dashoffset:0;stroke-opacity:1"
     id="rect4156"
     width="597.52118"
     height="168.91949"
     x="44.633789"
     y="1" />
  <flowRoot
     xml:space="preserve"
     id="flowRoot4178"
     style="font-style:normal;font-weight:normal;font-size:80px;line-height:125%;font-family:sans-serif;letter-spacing:0px;word-spacing:0px;fill:#000000;fill-opacity:1;stroke:none;stroke-width:1px;stroke-linecap:butt;stroke-linejoin:miter;stroke-opacity:1"
     transform="translate(-2.6094898,-8.2299806e-7)"><flowRegion
       id="flowRegion4180"><rect
         id="rect4182"
         width="829.47034"
         height="332.7966"
         x="-92.023308"
         y="-68.593216" /></flowRegion><flowPara
       id="flowPara4184"></flowPara></flowRoot>  <g
     id="g4217"
     transform="translate(-139.29554,-14.496822)">
    <path
       style="fill:#000000;fill-opacity:1;stroke:none;stroke-width:2;stroke-linejoin:round;stroke-miterlimit:4;stroke-dasharray:none;stroke-opacity:1"
       d="m 1031.4509,105.52842 c -0.2169,1.79892 -0.7993,2.56557 -1.822,2.39807 -1.9109,-0.31303 -3.5557,-4.72335 -2.8897,-7.74908 0.5428,-2.466066 2.3229,-3.262414 2.3872,-1.067874 0.021,0.717963 0.6778,1.529604 1.4597,1.803634 0.7817,0.27404 1.3678,0.82961 1.3024,1.2346 -0.065,0.40498 -0.2624,1.92629 -0.4376,3.38065 z m -0.4474,-6.373488 c -0.5247,-0.303448 -0.9835,-1.556191 -1.0194,-2.783865 -0.036,-1.227674 0.3487,-2.505107 0.8548,-2.838727 0.5487,-0.361698 0.9602,0.762191 1.0194,2.783865 0.059,2.021674 -0.2859,3.167713 -0.8548,2.838727 z m -2.4288,25.806758 c -1.0258,3.12221 -3.23,5.16092 -3.292,3.04485 -0.05,-1.70541 -2.7173,-1.05074 -3.6921,0.90616 -1.219,2.44732 -1.1321,3.17788 0.2673,2.24661 0.6325,-0.42093 1.9312,-0.91041 2.886,-1.08775 1.461,-0.27135 1.6454,0.0898 1.1637,2.2783 -0.6676,3.03333 -2.0201,4.9862 -3.5123,5.07153 -0.5807,0.0332 -1.8367,1.23063 -2.791,2.66094 l -1.7353,2.60055 1.9918,-1.84501 c 2.6248,-2.43123 2.7399,-0.40052 0.2271,4.00628 l -1.8348,3.21786 -1.9718,-1.99606 c -1.0845,-1.09783 -2.0309,-1.8588 -2.103,-1.69103 -0.072,0.16775 -1.3533,1.81433 -2.8468,3.65906 -2.2468,2.77506 -2.3113,2.97851 -0.374,1.17864 2.9936,-2.78125 3.6105,-2.75624 3.6955,0.14981 0.076,2.58855 -4.4864,5.83553 -5.2539,3.73935 -0.2116,-0.57778 -1.2016,-0.81116 -2.2,-0.51861 -3.1758,0.93058 -2.0495,-3.00062 2.3637,-8.2503 1.1115,-1.32215 2.8334,-3.48284 3.8264,-4.80152 1.4479,-1.92255 1.9827,-2.14539 2.6991,-1.12467 0.7206,1.02672 1.0831,0.89198 1.8744,-0.69664 1.2903,-2.59037 1.3091,-2.55153 -1.2705,-2.62416 -1.6806,-0.0473 -2.7129,0.85283 -4.1734,3.6393 -1.7312,3.30293 -4.5925,5.12102 -4.6559,2.95828 -0.1239,-4.23565 7.7152,-15.25113 9.5931,-13.48005 0.6394,0.60304 1.6784,-0.68088 3.0994,-3.83017 1.2493,-2.76876 2.7769,-4.77114 3.6762,-4.81876 0.8462,-0.0448 1.7627,-0.72112 2.0369,-1.50292 0.3558,-1.0152 -0.1321,-1.40298 -1.7059,-1.35692 -2.8351,0.083 -3.6966,-2.69421 -1.7061,-5.50022 1.3384,-1.88679 1.7916,-2.00347 4.0655,-1.04678 2.8039,1.17977 3.442,4.07667 1.6781,7.61803 -0.76,1.52564 -0.7427,2.1148 0.069,2.35923 1.2901,0.38848 1.2852,0.63809 -0.094,4.83679 z m -0.5261,-30.405677 c -0.5097,0.335987 -1.198,-0.03856 -1.5296,-0.832384 -0.3315,-0.793798 -1.0077,-1.176357 -1.5025,-0.85014 -0.4948,0.326219 -0.2099,-0.842408 0.6333,-2.596952 1.3917,-2.89588 1.6053,-3.019774 2.317,-1.343429 1.1217,2.64238 1.1547,4.915557 0.082,5.622911 z m -5.8657,16.377797 c -1.6967,2.72511 -2.4015,2.68914 -3.8189,-0.19491 -0.9727,-1.97914 -0.8794,-2.66638 0.5885,-4.33752 2.9477,-3.35563 5.7199,0.53395 3.2304,4.53243 z m -2.1678,13.10251 c -2.0313,3.08852 -4.7489,1.91259 -6.5177,-2.82027 -1.3888,-3.71601 -1.3753,-4.12864 0.1839,-5.62501 1.5891,-1.52497 1.8463,-1.44518 4.6227,1.43429 3.3762,3.50161 3.5502,4.21452 1.7111,7.01099 z m -4.74,-37.386696 c -4.4766,15.177196 -21.8114,27.555506 -45.66054,32.605096 -9.09127,1.9249 -28.95546,2.08567 -38.85832,0.31451 -43.25953,-7.73717 -62.41382,-38.048833 -38.73352,-61.295804 6.35577,-6.239509 17.17171,-12.233446 28.11306,-15.579519 6.28341,-1.921673 9.97503,-2.346171 24.72055,-2.842632 15.11117,-0.508366 18.41486,-0.341759 25.76161,1.301781 26.11877,5.843176 43.70556,19.948923 45.31246,36.343724 0.2832,2.889301 -0.01,6.958678 -0.6553,9.152844 z M 989.03363,72.84852 c -6.97148,-12.730678 -30.09829,-20.19421 -51.3379,-16.567834 -23.46756,4.006759 -36.63522,18.833028 -29.00446,32.657903 4.60568,8.344242 17.98668,15.500331 31.05383,16.607391 4.50453,0.38163 4.43529,0.33422 -1.65545,-1.13359 -3.49613,-0.84253 -6.65931,-1.81737 -7.02929,-2.1663 -0.84793,-0.79971 3.93765,-6.171702 6.20464,-6.964953 0.93134,-0.32588 1.6702,-1.382591 1.64194,-2.348258 -0.0828,-2.827059 1.29923,-2.918934 2.6118,-0.173594 0.66735,1.395831 2.60089,3.112531 4.29675,3.814881 3.13383,1.297911 8.66018,1.10623 7.75363,-0.268983 -0.27325,-0.414503 0.20819,-0.716409 1.06988,-0.670912 0.87908,0.0464 2.70235,-1.698787 4.1542,-3.976323 2.72534,-4.275283 5.5299,-5.688328 9.53878,-4.805999 1.93933,0.426838 2.3755,1.02076 2.19788,2.992762 -0.12191,1.353336 -1.36463,3.363028 -2.76211,4.466771 -2.16347,1.708734 -2.95936,1.862277 -5.36265,1.034632 -1.55218,-0.534543 -2.81827,-0.839848 -2.81355,-0.678447 0.0135,0.460893 6.90383,6.844483 7.373,6.830753 0.23088,-0.007 1.33052,-1.13598 2.44364,-2.509374 1.26624,-1.562329 3.15668,-2.619655 5.05006,-2.824492 4.03017,-0.436009 4.24977,-0.82467 2.56677,-4.542888 -5.49933,-12.149604 -31.39799,-16.636309 -48.96298,-8.482382 -4.48007,2.079716 -9.85533,7.525416 -9.78542,9.913653 0.08,2.734189 -1.84491,2.40243 -3.37682,-0.581975 -2.19402,-4.274313 -0.85431,-9.557675 3.63541,-14.336749 6.2884,-6.693692 15.93198,-10.386881 28.0481,-10.741547 12.99605,-0.380423 24.3469,3.738489 32.06586,11.635816 3.25453,3.329749 4.07675,4.843929 4.17135,7.681846 0.0876,2.627142 0.3405,3.166913 0.98509,2.102397 0.47699,-0.787734 0.83237,-2.844623 0.78973,-4.570884 -0.23281,-9.426454 -9.92032,-16.610547 -26.28826,-19.494861 -12.96149,-2.28406 -25.82927,-0.442164 -36.58786,5.237171 -5.67347,2.994956 -10.43564,8.456614 -10.33618,11.854418 0.0256,0.874256 -0.43034,1.603508 -1.01318,1.620569 -1.71035,0.05007 -0.41814,-6.395333 2.09382,-10.443766 5.20144,-8.382991 16.42658,-13.610373 31.52683,-14.6816 20.35456,-1.443976 37.2579,5.476061 42.67112,17.469077 2.00019,4.431422 2.00753,6.84255 0.0351,11.518395 -3.26183,7.732421 -11.5259,13.643876 -23.08521,16.513336 -3.3288,0.82633 -5.33393,1.52377 -4.45582,1.54987 0.8781,0.0261 3.805,-0.49424 6.50422,-1.15629 15.48039,-3.79694 25.71407,-13.190089 25.41726,-23.329656 -0.0777,-2.655733 -0.93169,-6.019677 -2.04352,-8.050004 z M 947.1864,87.670232 c -4.88611,0.256495 -5.61776,0.0701 -5.66204,-1.442589 -0.10449,-3.569671 6.81845,-5.184135 9.63682,-2.247362 2.62284,2.733037 1.92573,3.380191 -3.97478,3.689951 z m -12.56092,8.522167 c -0.92446,0.980209 -5.81219,0.915484 -7.85906,-0.104081 -4.90627,-2.443851 -4.3476,-8.292351 0.80655,-8.443225 4.54166,-0.132944 9.53339,5.9168 7.05251,8.547306 z m 14.82328,9.375591 c -2.40339,-0.0804 -4.16505,0.16434 -3.91481,0.54386 0.25024,0.37955 3.064,0.55626 6.2528,0.39267 6.05224,-0.31049 5.11182,-0.6872 -2.33799,-0.93653 z m 5.04979,-5.32643 c -0.30227,0.32051 -0.31191,1.12972 -0.0214,1.79827 0.32102,0.7388 0.53658,0.51025 0.54958,-0.58274 0.0118,-0.98905 -0.22591,-1.536039 -0.52818,-1.21553 z m -5.63647,1.55231 c -0.2411,0.65186 -0.21024,1.70609 0.0686,2.34275 0.27881,0.63665 0.47608,0.1033 0.43837,-1.18522 -0.0377,-1.28851 -0.26585,-1.8094 -0.50695,-1.15753 z m -4.67161,-1.25057 c -0.30227,0.32051 -0.31191,1.12972 -0.0214,1.79827 0.32103,0.7388 0.53657,0.51025 0.54959,-0.58274 0.0118,-0.98905 -0.22591,-1.53604 -0.52818,-1.21553 z m 67.32793,29.84483 c -1.9907,1.8136 -5.1491,3.11616 -4.3953,1.81269 0.2999,-0.51872 0.148,-0.93149 -0.3377,-0.91727 -1.9862,0.0581 -1.9717,-3.76805 0.02,-5.1577 4.2411,-2.95979 8.4566,0.85218 4.7134,4.26228 z m -3.9271,9.07847 c -0.5254,1.17603 -1.5233,2.15486 -2.2177,2.17519 -0.6943,0.0203 -1.252,0.39396 -1.2392,0.8303 0.013,0.43634 -1.4636,2.41674 -3.2808,4.40089 -2.40775,2.62882 -3.51435,3.28873 -4.07889,2.43237 -1.7477,-2.6511 7.53509,-15.88714 10.43029,-14.87229 1.6189,0.56746 1.7307,2.02391 0.3863,5.03354 z m -1.5466,-14.59278 c -4.6729,2.2965 -7.37265,-3.05248 -3.0598,-6.06231 2.2435,-1.56573 2.3389,-1.54093 3.3362,0.8675 0.5646,1.36363 1.2591,2.83196 1.5432,3.26298 0.2842,0.43102 -0.5347,1.30034 -1.8196,1.93183 z m -0.524,23.79987 c -2.9123,6.13897 -12.07674,13.07988 -12.18938,9.23193 -0.0456,-1.55876 2.7677,-5.67543 3.90127,-5.70861 0.57092,-0.0167 2.47596,-1.76593 4.23341,-3.88716 3.746,-4.52144 6.265,-4.29541 4.0547,0.36384 z m -1.5924,12.37121 c -1.2617,0.84019 -2.0839,0.808 -3.4565,-0.13532 -1.74425,-1.19863 -1.73355,-1.31412 0.3374,-3.65197 1.1762,-1.3278 2.6976,-2.43055 3.3808,-2.45055 1.8839,-0.0551 1.6739,4.94882 -0.2617,6.23784 z m -2.9935,-23.74729 c -3.1201,2.15637 -6.77176,0.661 -8.62427,-3.53165 -1.43779,-3.25407 -1.4146,-3.50336 0.47441,-5.09992 2.46217,-2.08098 3.95177,-2.20275 4.71099,-0.38511 0.32114,0.76883 1.66422,1.8524 2.98457,2.40793 3.0357,1.27727 3.2685,4.66372 0.4543,6.60875 z m -5.19395,8.22893 c -1.05711,1.85386 -2.34604,3.00169 -3.08127,2.74397 -0.69518,-0.24368 -2.82994,1.25747 -4.7439,3.33587 -5.74048,6.23369 -8.02118,4.51965 -3.59122,-2.69896 1.31836,-2.14826 2.76297,-3.91665 3.21025,-3.92974 0.44728,-0.0131 1.86835,-1.14256 3.15794,-2.50992 1.71183,-1.81506 2.95035,-2.35281 4.58856,-1.99225 2.7295,0.60075 2.76637,1.00572 0.45964,5.05103 z m -3.92593,20.37207 c -5.85031,2.84695 -8.14736,-0.22155 -3.0531,-4.07849 3.26324,-2.47065 5.91378,-2.31784 6.38015,0.36784 0.25398,1.46264 -0.54987,2.35919 -3.32705,3.71065 z m 0.94427,-9.81905 c -1.2125,1.84096 -3.28171,3.83747 -4.59826,4.43671 -1.31654,0.59922 -2.70903,1.63473 -3.09439,2.3011 -0.46922,0.81138 -1.67731,1.02688 -3.65725,0.65237 l -2.95658,-0.55923 1.86728,-2.79179 c 1.02702,-1.53549 2.59925,-2.81322 3.49386,-2.83941 0.89461,-0.0262 2.96805,-1.51528 4.60766,-3.30909 1.99916,-2.18718 3.57702,-3.12415 4.79023,-2.84454 2.27505,0.52433 2.24448,0.8589 -0.45255,4.95388 z m -2.45576,-16.08718 c -0.2444,0.66281 -1.65653,1.87761 -3.13807,2.69955 -2.76696,1.53508 -5.91224,0.87744 -7.6771,-1.6052 -2.81912,-3.96565 2.92405,-6.79522 8.42577,-4.15124 1.63318,0.78486 2.93889,1.5226 2.90158,1.6394 -0.0373,0.11681 -0.26778,0.75468 -0.51218,1.41749 z m -9.42938,-4.71624 c -3.92058,0.85496 -6.03701,-0.40087 -6.13178,-3.63841 -0.043,-1.47065 0.49154,-2.268 1.57266,-2.34565 0.90084,-0.0647 2.5434,-0.31532 3.65014,-0.55691 1.56981,-0.34269 2.25587,0.19887 3.12027,2.46306 0.60943,1.5963 1.111,3.00334 1.11461,3.12677 0.004,0.12344 -1.49304,0.55144 -3.3259,0.95114 z m 0.59069,15.03768 c -1.1945,1.5825 -2.50763,2.56315 -2.91807,2.1792 -0.41045,-0.38394 -2.10244,0.69562 -3.75998,2.39901 -3.42696,3.52177 -5.45412,4.24319 -5.64044,2.00728 -0.37901,-4.54832 7.9648,-12.26244 12.24456,-11.32048 2.76773,0.60916 2.77624,1.15485 0.0739,4.73499 z m -1.27581,21.53802 c -3.67173,0.80069 -8.2176,-1.41341 -7.88597,-3.84094 0.54683,-4.00274 10.13989,-2.99472 10.85648,1.14079 0.27863,1.60796 -0.27663,2.11268 -2.97051,2.70015 z m -0.98125,-12.35427 c -0.99833,1.43303 -3.58194,3.87469 -5.74134,5.42591 -3.38859,2.43421 -4.1625,2.65801 -5.6519,1.63444 -1.62155,-1.11439 -1.63587,-1.33221 -0.23717,-3.60957 0.81868,-1.333 2.03244,-2.43954 2.69724,-2.459 0.66479,-0.0195 2.38372,-1.33594 3.81982,-2.92552 2.95873,-3.27492 3.18118,-3.34964 5.35246,-1.798 1.44934,1.0357 1.43013,1.33566 -0.23911,3.73174 z M 975.453,145.09686 c -0.52796,1.4274 -4.39861,1.66623 -6.89025,0.42513 -0.98962,-0.49294 -2.28327,-2.45984 -2.87476,-4.37088 -1.75885,-5.68276 -1.5449,-6.47314 1.65101,-6.09924 1.55285,0.18168 2.83389,0.68947 2.84674,1.12844 0.0128,0.43898 1.33061,2.20195 2.92838,3.91774 1.59776,1.71577 2.87627,3.27574 2.84113,3.46659 -0.0351,0.19086 -0.26115,0.88035 -0.50225,1.53222 z m -5.7642,27.36788 c -0.2411,0.65186 -1.8079,1.22529 -3.48177,1.27429 -2.25504,0.066 -3.37289,-0.48549 -4.31534,-2.129 -0.69957,-1.21995 -0.99999,-2.68836 -0.66761,-3.26312 0.87325,-1.51004 4.4212,-1.391 6.8876,0.23109 2.17671,1.43156 2.33811,1.8293 1.57712,3.88674 z m -1.31435,-19.42299 c -0.67695,1.30943 -1.87372,2.40473 -2.65951,2.43398 -0.78581,0.029 -2.60886,1.252 -4.05124,2.71721 -2.54119,2.58139 -2.673,2.61142 -4.24993,0.96823 -1.53699,-1.60156 -1.47678,-1.91708 1.08359,-5.67852 1.61724,-2.37587 3.46481,-4.0048 4.57934,-4.03743 1.03599,-0.0303 1.84999,-0.68089 1.82717,-1.46034 -0.0555,-1.89432 1.20106,-1.80786 3.14362,0.21631 1.89619,1.97585 1.886,1.82485 0.32696,4.84056 z m -2.3806,10.13984 c -1.0788,1.70131 -2.67829,3.11981 -3.55444,3.15222 -0.87614,0.0327 -1.95164,0.74622 -2.38997,1.58625 -0.68514,1.31301 -1.08517,1.35886 -2.85075,0.32679 -1.12957,-0.66029 -2.05281,-1.62661 -2.05166,-2.14737 0.004,-1.64632 2.48895,-4.5136 3.43704,-3.96532 0.50018,0.28926 1.43059,-0.14082 2.06756,-0.95572 1.73405,-2.21841 4.21998,-3.40807 5.89478,-2.82101 1.88527,0.66084 1.84073,1.0498 -0.55256,4.82416 z m -2.65639,-15.30717 c -2.35871,2.50097 -8.78305,-1.00135 -8.8957,-4.84961 -0.0686,-2.34212 0.27483,-2.71388 2.56881,-2.78103 4.07541,-0.1193 8.54829,5.27527 6.32689,7.63064 z m -7.12254,-9.48316 c -1.85406,0.0543 -3.144,-0.55636 -3.87755,-1.83559 -1.68706,-2.94199 -0.5767,-4.59933 3.15461,-4.70856 3.15727,-0.0924 3.31367,0.0538 3.40527,3.18298 0.0881,3.01089 -0.13183,3.28651 -2.68233,3.36117 z m 2.19651,36.9285 c -1.1904,1.26221 -3.94658,0.45565 -6.68493,-1.95625 -2.2119,-1.9482 -2.68115,-2.86319 -1.8956,-3.69612 1.37573,-1.4587 4.6203,-1.50575 6.49585,-0.0942 1.60196,1.20566 2.92575,4.85476 2.08468,5.74654 z m -1.59698,-21.69525 c -0.81841,1.44235 -1.92056,2.48476 -2.44922,2.31647 -0.52866,-0.1683 -2.12419,0.72037 -3.54562,1.97481 -3.01674,2.66232 -3.237,2.69613 -5.76403,0.88467 -1.86497,-1.33687 -1.80662,-1.47693 2.19081,-5.25903 7.00997,-6.63236 7.09332,-6.66862 9.51919,-4.14083 1.40542,1.46447 1.4096,1.82578 0.0489,4.22391 z m -2.76116,10.49584 c -1.02846,1.38928 -2.63107,2.54825 -3.56136,2.57548 -0.93029,0.0272 -2.1908,0.68835 -2.80112,1.46914 -1.09268,1.3979 -1.82923,1.25498 -5.53801,-1.07462 -1.94234,-1.22004 2.01978,-5.78875 4.52037,-5.21244 1.14606,0.26413 2.7036,-0.41438 4.06561,-1.7711 1.83042,-1.82332 2.45877,-2.00312 3.67578,-1.05183 1.91359,1.49579 1.8744,2.04536 -0.36127,5.06537 z m -4.6718,-16.15004 c -4.40578,0.12896 -7.6436,-2.21215 -9.26874,-6.70181 -0.83526,-2.30752 -1.30487,-4.42216 -1.04358,-4.69922 0.2613,-0.27705 1.88074,-0.54488 3.59875,-0.59517 2.11888,-0.062 3.13659,0.35022 3.16385,1.2816 0.0221,0.75517 1.34745,2.77686 2.94522,4.49264 3.6287,3.89673 3.84539,6.12709 0.6045,6.22196 z m -4.78056,27.33908 c -1.80391,0.0528 -3.29183,-0.31363 -3.30649,-0.8143 -0.0147,-0.50067 -1.40754,-1.22532 -3.09531,-1.61033 -4.49863,-1.02625 -4.37701,-4.19305 0.18087,-4.70967 2.65308,-0.30072 3.99286,0.18076 6.39815,2.29929 3.92834,3.46002 3.8823,4.71618 -0.17722,4.83501 z m -0.68952,-21.31707 c -1.39275,2.75276 -2.60218,3.31426 -3.66526,1.70165 -0.39734,-0.60272 -1.80554,-0.0196 -3.74317,1.55011 -2.9714,2.40712 -3.21065,2.45218 -5.51264,1.03836 -1.32354,-0.81288 -2.41359,-1.72266 -2.42235,-2.02174 -0.0359,-1.22766 4.97537,-5.95097 6.35672,-5.99141 0.8197,-0.024 2.38066,-0.70688 3.4688,-1.51751 1.81298,-1.35062 2.18185,-1.30258 4.41045,0.57432 2.29401,1.93199 2.35685,2.19677 1.10745,4.66622 z m -3.21892,10.01317 c -1.16007,1.15557 -3.21681,2.13346 -4.57054,2.17308 -1.35372,0.0396 -2.71353,0.50819 -3.02181,1.04125 -0.66839,1.15579 -5.82341,-1.44564 -6.61364,-3.33751 -0.28841,-0.69045 -0.14861,-1.03807 0.31066,-0.77247 0.45925,0.26559 1.35311,-0.17992 1.98634,-0.99002 0.63323,-0.8101 1.76565,-1.25757 2.51649,-0.99438 0.75084,0.26319 2.98388,-0.49463 4.96229,-1.68405 3.54364,-2.13041 3.61833,-2.13618 5.02269,-0.38836 1.88311,2.34368 1.86372,2.50581 -0.59248,4.95246 z m -4.03832,-17.30395 c -0.49895,0.91733 -1.83502,1.69503 -2.96908,1.72821 -2.47939,0.0725 -7.37899,-5.35862 -7.46433,-8.27415 -0.051,-1.7412 0.30545,-1.94609 2.53655,-1.4582 2.70402,0.59132 8.82954,4.53929 8.81333,5.68029 -0.005,0.36078 -0.41753,1.40651 -0.91647,2.32385 z m -5.42884,28.24763 c -1.42527,-0.22868 -4.48133,-2.29649 -6.79122,-4.59513 l -4.19982,-4.17935 2.85562,-0.37462 c 3.58926,-0.47086 8.20098,2.5817 9.65524,6.39095 0.58297,1.52702 1.06255,2.86585 1.06575,2.97516 0.003,0.10933 -1.1603,0.0117 -2.58557,-0.21701 z m -1.56183,-37.33501 c -3.79646,-0.59496 -4.25981,-0.98092 -4.91259,-4.09223 -0.606,-2.88832 0.40077,-3.53615 4.70419,-3.02699 2.84464,0.33656 3.06619,0.61522 3.1647,3.9805 0.10463,3.57452 0.0686,3.61276 -2.9563,3.13872 z m -0.69353,15.02478 c -0.83961,1.17816 -1.8929,1.58151 -3.17449,1.21568 -1.13236,-0.32326 -2.87817,0.12256 -4.26226,1.08853 -1.89046,1.31932 -2.62212,1.4189 -3.7793,0.51438 -0.78925,-0.61693 -1.45033,-1.64572 -1.46908,-2.28621 -0.0574,-1.96066 3.56274,-6.15674 4.90559,-5.68604 0.69542,0.24377 1.89052,-0.22069 2.6558,-1.03212 1.24878,-1.32408 1.64688,-1.28622 3.88336,0.36941 2.80473,2.0763 3.05832,3.26544 1.24038,5.81637 z m -2.41625,8.96672 c -1.16007,1.15557 -2.94652,2.12554 -3.96988,2.1555 -1.02336,0.03 -2.27542,0.49425 -2.78236,1.03177 -0.62252,0.66005 -1.603,0.29336 -3.02045,-1.1296 -1.95198,-1.9596 -1.99982,-2.25731 -0.68424,-4.25767 1.01516,-1.54358 1.74726,-1.89063 2.59325,-1.22935 0.82222,0.6427 1.80947,0.45155 3.26388,-0.63195 1.64367,-1.2245 2.56965,-1.34949 4.37384,-0.59038 2.85069,1.19942 2.88951,1.99848 0.226,4.65168 z m -3.72014,-17.78221 c -0.69206,2.16251 -4.69582,1.42404 -6.71117,-1.23783 -1.88172,-2.48538 -3.44107,-11.21913 -2.05192,-11.49264 2.29291,-0.45145 4.19402,0.99405 4.80784,3.65563 0.38019,1.64857 1.51088,4.09855 2.51262,5.44438 1.00175,1.34585 1.65093,2.97954 1.44263,3.63046 z m -3.92243,26.97664 c -3.91881,-1.44375 -7.88633,-5.07807 -7.95088,-7.28313 -0.0711,-2.42926 3.90211,-0.6708 7.83668,3.46835 1.99444,2.09814 3.63603,4.10953 3.64797,4.46975 0.0116,0.36022 -1.57826,0.0655 -3.53377,-0.65497 z m -2.70234,-21.42146 c -0.95899,0.92033 -2.22704,1.39374 -2.8179,1.05205 -0.59086,-0.34168 -1.88225,0.15414 -2.86975,1.10181 -1.68732,1.61931 -1.89386,1.63028 -3.42932,0.18212 -1.52364,-1.43697 -1.53439,-1.71714 -0.15939,-4.15319 0.81094,-1.43676 2.34403,-2.7726 3.40686,-2.96855 1.06283,-0.19595 1.92094,-0.74863 1.9069,-1.2282 -0.0501,-1.71049 1.75302,-0.88083 3.71366,1.70878 1.95993,2.58869 1.96402,2.65927 0.24898,4.30515 z m -2.08516,9.9372 c -1.2511,1.24624 -2.56204,1.99493 -2.91319,1.66375 -0.35115,-0.33118 -1.12816,-0.1709 -1.72671,0.35616 -0.75265,0.66278 -1.62838,0.3955 -2.8397,-0.86672 -1.49488,-1.55767 -1.59379,-2.19976 -0.67518,-4.38304 0.8191,-1.94678 1.27467,-2.25706 1.90655,-1.29854 0.69143,1.04883 1.21076,0.99396 3.10509,-0.32806 2.11583,-1.4766 2.38365,-1.4741 3.83269,0.0358 2.00613,2.0904 1.99862,2.14289 -0.68955,4.82063 z m -3.24726,-17.79722 c -1.6918,1.48978 -3.62957,0.62112 -5.60725,-2.5136 -1.57807,-2.50132 -2.42788,-7.4925 -1.2814,-7.52606 1.78066,-0.0521 4.4714,2.30021 6.16155,5.38661 1.61832,2.95524 1.74374,3.75781 0.7271,4.65305 z m -0.57128,28.22938 c -1.3721,0.0402 -4.88685,-3.31345 -4.92748,-4.70158 -0.0176,-0.60131 -0.29948,-0.80968 -0.62639,-0.46305 -0.72926,0.77324 -6.00934,-2.12133 -11.71491,-6.4222 -2.6793,-2.01965 -4.01368,-2.61876 -3.59381,-1.61358 0.36731,0.87936 0.33288,1.60864 -0.0765,1.62063 -1.26375,0.037 -4.62808,-3.89045 -6.82681,-7.96945 -2.01712,-3.7421 -2.8548,-6.80235 -1.5165,-5.54017 0.35481,0.33464 1.3561,-0.0739 2.22506,-0.90782 1.04748,-1.00524 1.7977,-1.18594 2.22606,-0.53615 0.35535,0.53904 1.61009,0.95187 2.7883,0.91738 1.91554,-0.0561 5.3181,2.37871 5.36076,3.83601 0.009,0.30916 -0.61771,1.23451 -1.39279,2.05634 -1.49154,1.5815 -3.26813,1.09028 -7.38066,-2.04072 -1.17821,-0.897 -0.8432,-0.0122 0.99166,2.6189 1.52403,2.18544 2.90858,3.51654 3.07677,2.95799 0.44063,-1.46329 2.53297,-1.31194 3.93916,0.28494 0.66426,0.75433 1.62943,1.35916 2.14483,1.34407 0.51541,-0.0151 0.37543,-0.66526 -0.31104,-1.44482 -1.03204,-1.17199 -0.98036,-1.70124 0.29854,-3.05692 1.26618,-1.34218 1.69602,-1.41309 2.37006,-0.391 0.55616,0.84334 1.71945,1.02404 3.58453,0.5568 3.95,-0.98955 5.68153,1.12923 3.63971,4.45374 -1.15455,1.87984 -2.02135,2.32897 -3.75737,1.94688 -1.30569,-0.28738 -2.24448,-0.0823 -2.22782,0.48672 0.0422,1.44072 2.12712,2.41887 4.38935,2.05927 1.86026,-0.29571 7.04955,4.22946 7.10717,6.19759 0.0127,0.43371 0.29856,1.44809 0.63528,2.25419 0.33671,0.80611 0.14538,1.47931 -0.42516,1.49601 z m -0.66795,-37.49651 c -0.22414,0.007 -1.50127,-0.36766 -2.83804,-0.83161 -1.97451,-0.68528 -2.44865,-1.46324 -2.52719,-4.14658 -0.10196,-3.48321 0.0587,-3.61491 3.43472,-2.81527 1.74115,0.41241 2.14425,1.16071 2.23154,4.14243 0.0586,2.00151 -0.0769,3.64447 -0.30103,3.65103 z m -3.32876,13.47883 c -0.68512,0.95994 -1.84386,1.47021 -2.6761,1.1785 -0.80728,-0.28298 -2.38097,0.009 -3.49708,0.64917 -1.70726,0.97901 -2.34702,0.86403 -4.03136,-0.7245 l -2.00206,-1.88818 2.05807,-2.32337 c 1.35624,-1.53104 2.71274,-2.17247 3.97781,-1.88091 1.07558,0.2479 2.24482,-0.11973 2.65904,-0.83598 0.5741,-0.99275 1.18067,-0.7786 2.71455,0.95842 2.34015,2.65008 2.34745,2.69464 0.79713,4.86685 z m -5.04965,-7.39553 c -1.26794,1.34441 -4.44553,-0.65907 -6.66298,-4.20105 -1.64302,-2.62441 -2.47072,-5.2945 -2.55722,-8.24928 -0.0703,-2.40289 0.0978,-4.3755 0.37363,-4.38357 1.97262,-0.0577 5.22256,3.21842 5.3028,5.34558 0.0512,1.35774 0.94861,3.49873 1.99421,4.75774 1.8268,2.19963 2.61087,5.60526 1.54956,6.73058 z m -7.09242,2.71285 c -1.48096,0.98627 -2.13487,1.0592 -2.42372,0.27036 -0.24838,-0.67828 -1.49073,-0.84537 -3.3384,-0.44901 -2.32262,0.49824 -3.20321,0.23305 -4.17845,-1.25835 -3.29752,-5.04281 6.07017,-8.10652 10.08541,-3.29843 2.33393,2.79479 2.32488,3.09071 -0.14484,4.73543 z m -5.03477,-10.20854 c -1.64257,1.74162 -2.25877,1.41006 -5.42955,-2.9214 -4.31722,-5.89757 -4.22522,-11.53567 0.12578,-7.70843 3.44478,3.03011 6.56789,9.28946 5.30377,10.62983 z m -0.78268,-12.26745 c -0.18942,1.1662 -0.50419,2.12504 -0.69948,2.13075 -0.19531,0.006 -1.38483,-0.90909 -2.6434,-2.03289 -2.34355,-2.09264 -4.42842,-5.84481 -2.68855,-4.83865 0.51872,0.29997 0.92387,-0.11198 0.90035,-0.91554 -0.0235,-0.80353 0.30543,-1.47115 0.73099,-1.48361 0.85256,-0.0249 5.04494,3.94965 4.86015,4.60769 -0.0636,0.22654 -0.27065,1.36605 -0.46006,2.53225 z m -5.07254,15.46472 c -1.22725,1.08071 -1.60159,1.04912 -2.34834,-0.19815 -0.50448,-0.84261 -1.61926,-1.26961 -2.5798,-0.98816 -1.11165,0.32574 -2.09509,-0.238 -2.86901,-1.64457 -0.93088,-1.6919 -1.07135,-1.7504 -0.67058,-0.27924 1.27545,4.68198 -3.1889,5.28929 -4.95107,0.67351 -1.36947,-3.58718 -0.26283,-5.28099 2.53864,-3.88555 1.71987,0.85668 2.29774,0.81246 2.9121,-0.22288 0.42155,-0.71041 0.76322,-1.62295 0.75926,-2.02787 -0.004,-0.40492 0.74189,-0.37827 1.65743,0.0592 0.91553,0.4375 2.10514,0.62068 2.64357,0.4071 0.53843,-0.2136 1.7372,1.08883 2.66395,2.89428 2.04172,3.97759 2.02606,3.64291 0.24381,5.21231 z m -1.79464,7.68162 c -0.87897,0.81213 -2.17217,1.28862 -2.87379,1.05887 -1.00857,-0.33028 -1.04864,-0.0218 -0.19136,1.47318 1.80211,3.14262 1.24694,4.51275 -0.83897,2.07053 -2.03607,-2.38388 -5.82897,-8.68801 -5.85975,-9.73942 -0.01,-0.33337 0.61063,-0.38588 1.37864,-0.11668 0.76801,0.2692 1.8326,-0.24437 2.36578,-1.14128 0.69928,-1.17635 1.11612,-1.30837 1.49595,-0.47379 0.28959,0.63633 1.18287,1.13775 1.98506,1.11427 1.32853,-0.0389 3.97863,2.37186 4.09042,3.72098 0.0254,0.30619 -0.67303,1.22119 -1.55198,2.03333 z m -2.78886,-18.32072 c -0.58285,0.38424 -1.6954,-0.0859 -2.47233,-1.04465 -1.36396,-1.68323 -1.39041,-1.6758 -0.76814,0.21573 0.40098,1.21881 0.11853,2.42219 -0.74766,3.1849 -0.97166,0.85564 -1.40156,0.90418 -1.42333,0.16071 -0.0193,-0.65998 -1.05653,-0.85346 -2.72651,-0.50859 -2.50238,0.51678 -2.72988,0.32086 -3.17787,-2.73669 -0.34072,-2.32547 -0.14274,-3.17421 0.67367,-2.88805 0.63591,0.22291 1.35937,-0.17434 1.60769,-0.88276 0.26973,-0.7695 1.23505,-1.10746 2.3978,-0.83949 1.81197,0.41762 1.93449,0.0451 1.77516,-5.39806 -0.14901,-5.09075 0.015,-5.70112 1.26866,-4.72119 0.79189,0.619 1.47376,2.28587 1.51528,3.70417 0.0415,1.41831 0.7605,4.35303 1.59775,6.52162 1.82152,4.71799 1.78951,4.36896 0.47983,5.23235 z m -5.0204,-17.29215 c -1.62534,0.0476 -3.09354,-3.71034 -2.55727,-6.545469 0.94549,-4.998705 3.1889,-2.789821 3.36763,3.315809 0.0516,1.76175 -0.31309,3.21511 -0.81036,3.22966 z m -3.64182,10.75179 c -2.35297,2.28883 -3.52906,1.21741 -4.38392,-3.99374 -0.56191,-3.42539 -0.43576,-3.92434 0.87601,-3.46454 1.18116,0.41404 1.6556,-0.24475 2.06958,-2.8738 0.4958,-3.14872 0.63885,-3.28007 1.86028,-1.70833 2.03861,2.62326 1.78377,9.89478 -0.42195,12.04041 z m 0.37591,-33.63478 c -0.22791,1.038364 -1.26046,3.178872 -2.29454,4.756675 -1.59952,2.440556 -1.62777,2.653314 -0.18925,1.425407 1.60349,-1.368713 1.66452,-1.249278 1.18049,2.310199 -0.28073,2.064438 -0.68295,6.396431 -0.89383,9.626649 -0.40169,6.15289 -1.5265,7.61034 -2.69077,3.48656 -1.00763,-3.56896 -0.30184,-24.681466 0.85941,-25.708124 0.30173,-0.266753 0.9182,-1.735619 1.36993,-3.264141 0.90388,-3.058477 2.99931,-4.471153 3.06961,-2.069432 0.0244,0.834183 -0.61446,2.589458 -1.41972,3.900591 -0.80526,1.311143 -1.1883,2.644011 -0.8512,2.961934 0.33711,0.317942 0.59852,0.08608 0.58092,-0.515218 -0.0176,-0.601303 0.38969,-1.105626 0.90509,-1.120713 0.9777,-0.02862 1.07175,1.030222 0.37386,4.209613 z"
       id="path4223"
       inkscape:connector-curvature="0" />
  </g>
</svg>
