<?xml version="1.0" encoding="UTF-8" standalone="no"?>
<svg
   xmlns:dc="http://purl.org/dc/elements/1.1/"
   xmlns:cc="http://creativecommons.org/ns#"
   xmlns:rdf="http://www.w3.org/1999/02/22-rdf-syntax-ns#"
   xmlns:svg="http://www.w3.org/2000/svg"
   xmlns="http://www.w3.org/2000/svg"
   viewBox="0 0 595 169"
   height="169"
   width="595"
   version="1.1"
   id="svg4136">
  <metadata
     id="metadata4142">
    <rdf:RDF>
      <cc:Work
         rdf:about="">
        <dc:format>image/svg+xml</dc:format>
        <dc:type
           rdf:resource="http://purl.org/dc/dcmitype/StillImage" />
        <dc:title></dc:title>
      </cc:Work>
    </rdf:RDF>
  </metadata>
  <defs
     id="defs4140" />
  <g
     transform="translate(-0.80368383,2.4110519)"
     id="g4146">
    <path
       id="path4150"
       d="m 339.55301,92.250675 c -3.64965,-3.649645 -0.58565,-7.006275 5.50625,-6.03214 8.37027,1.338461 14.33725,-4.633233 34.00256,-34.029425 5.93591,-8.873146 14.42119,-20.952858 18.85616,-26.843803 4.43498,-5.890945 8.0636,-11.111699 8.0636,-11.601675 0,-1.251749 -11.67034,-0.07463 -16.59933,1.674276 -6.53304,2.318059 -8.89086,5.529986 -8.89618,12.118771 -0.003,4.287251 -0.41925,5.817842 -1.81306,6.674218 -3.93875,2.420019 -6.31005,-6.389819 -3.28071,-12.188453 4.07104,-7.792594 11.96388,-11.661781 26.88532,-13.1795937 5.92384,-0.6025738 11.90991,-1.5287493 13.30238,-2.0581678 3.12211,-1.1870227 3.66913,-1.2044954 2.98361,-0.095302 -0.64858,1.049418 -5.96943,37.7550675 -7.99204,55.1327235 -1.67717,14.409766 -1.34263,15.368176 5.39336,15.450806 2.51356,0.03083 4.01149,0.515724 4.01348,1.299194 0.004,1.485907 -21.52158,1.827993 -22.43102,0.356479 -0.30373,-0.491436 0.14197,-2.853936 0.99043,-5.25 0.84846,-2.396063 1.63291,-6.606479 1.74321,-9.356479 0.20055,-5 0.20055,-5 -9.29945,-5.253945 -5.225,-0.139669 -9.97102,0.08533 -10.54672,0.5 -0.5757,0.41467 -3.8933,4.725315 -7.37246,9.579212 -8.24101,11.497341 -16.47385,20.324434 -21.20945,22.740355 -4.58465,2.338915 -10.15947,2.503418 -12.29994,0.362949 z m 61.82161,-38.255503 c 0.76579,-1.239071 4.7451,-29.258637 4.3315,-30.499433 -0.42804,-1.284128 -20.72454,28.100505 -20.72454,30.004339 0,0.985047 2.02412,1.322026 7.94098,1.322026 4.36754,0 8.17097,-0.372119 8.45206,-0.826932 z M 8.4209074,79.928098 c -1.312201,-1.312201 0.01418,-3.006749 3.6296036,-4.637078 2.237912,-1.009157 4.697716,-3.050767 5.466231,-4.536911 1.581463,-3.058213 6.82051,-21.335106 11.446455,-39.932005 1.710143,-6.875 3.365198,-13.353634 3.6779,-14.396964 0.513191,-1.712268 0.151843,-1.841073 -3.711303,-1.322916 -5.782619,0.775612 -11.823642,5.236883 -14.724653,10.874096 -3.595725,6.987174 -3.869944,11.63666 -1.142043,19.36377 2.000629,5.667025 2.12531,6.739166 0.875638,7.529655 -2.53743,1.605068 -4.7447846,1.037277 -6.9885516,-1.797641 -1.9276448,-2.43551 -2.1270066,-3.664879 -1.7432849,-10.75 C 5.8828789,27.840674 11.250812,18.74088 21.148861,13.297074 26.474303,10.368145 26.5116,10.363353 48.48158,9.7852751 c 12.1,-0.3183774 22.301835,-0.3278364 22.670744,-0.02102 0.847808,0.7051107 -1.132505,11.1377667 -2.42908,12.7968387 -1.550793,1.984364 -2.913699,0.320767 -2.242142,-2.736814 1.00104,-4.557703 -2.151483,-6.002176 -13.099584,-6.002176 -6.144237,0 -9.471463,0.411086 -10.117178,1.25 -0.529171,0.6875 -2.676094,8.225 -4.770941,16.75 -2.094846,8.525 -5.354922,20.9 -7.244612,27.5 -5.274875,18.423219 -5.398101,16.5 1.057199,16.5 5.32712,0 7.869303,1.258889 6.038462,2.990246 -0.891803,0.843344 -29.1425686,1.89672 -29.9235406,1.115748 z"
       style="fill:#fd2727" />
    <path
       id="path4148"
       d="m 107.50528,108.86044 c -0.32689,-0.52891 1.16476,-1.85908 3.31477,-2.95593 2.75613,-1.40607 4.34751,-3.11333 5.39549,-5.78834 0.81752,-2.086737 4.53119,-16.539686 8.25262,-32.117665 7.44243,-31.154223 7.47865,-32.503311 0.74747,-27.838599 -6.56034,4.546319 -8.70456,2.772417 -3.04232,-2.516902 4.36847,-4.080763 12.40923,-8.003034 15.64045,-7.629392 2.57181,0.29739 2.66081,0.515431 2.4729,6.058492 -0.1072,3.1625 0.14203,5.75 0.55384,5.75 0.41181,0 2.29952,-1.615182 4.19491,-3.589292 4.0095,-4.176015 11.76972,-8.410708 15.41293,-8.410708 3.03041,0 6.23172,2.950486 7.14367,6.583963 0.36372,1.449159 0.39625,5.796412 0.0723,9.660561 -1.06706,12.727853 -10.35163,27.995111 -20.02644,32.930827 -2.98766,1.524193 -5.40325,1.92476 -10.04494,1.665714 -6.11135,-0.341065 -6.11135,-0.341065 -8.79289,10.005544 -1.47485,5.690635 -2.4626,10.917187 -2.19499,11.614547 0.58313,1.51961 4.7491,3.53884 7.30114,3.53884 2.04962,0 4.41604,2.32602 3.40005,3.34201 -1.05253,1.05252 -29.13967,0.76632 -29.80096,-0.30367 z m 38.34978,-33.472907 c 1.52578,-0.789015 3.96207,-3.229644 5.41398,-5.42362 4.72896,-7.14594 8.69186,-22.103737 7.31236,-27.600135 -0.75933,-3.025402 -3.93181,-4.888469 -6.78317,-3.983482 -2.80104,0.889017 -10.62128,8.163326 -12.33161,11.470746 -1.98945,3.847156 -6.33217,21.600381 -5.58108,22.815667 0.81595,1.320237 6.18389,4.14112 7.8957,4.149234 0.71481,0.0034 2.54803,-0.639396 4.07382,-1.42841 z M 70.007016,78.84754 C 63.367404,72.207928 68.334208,53.229161 80.065803,40.411681 86.464986,33.420185 93.299686,29.846068 100.29732,29.831873 c 2.64866,-0.0054 5.73447,-0.501457 6.85736,-1.10241 3.98496,-2.132683 4.27262,0.299443 1.39347,11.781407 -2.67768,10.678499 -6.56657,28.694766 -6.56657,30.421313 0,1.676768 3.1336,0.889799 6.41111,-1.610079 3.70869,-2.828756 4.58889,-3.059494 4.58889,-1.202948 0,1.958618 -6.93695,8.209094 -11.82677,10.656413 -6.396802,3.201548 -8.601505,2.537866 -8.980728,-2.703465 -0.169124,-2.3375 -0.554367,-4.25 -0.856095,-4.25 -0.301729,0 -2.188355,1.288343 -4.192503,2.862985 -8.022978,6.303586 -13.617092,7.663827 -17.118468,4.162451 z m 17.154063,-9.174525 c 1.473725,-1.037683 3.614272,-3.399192 4.756773,-5.247796 2.376814,-3.845767 8.472778,-26.13224 7.554358,-27.618274 -2.03088,-3.286032 -12.587645,0.831031 -16.380968,6.38846 -4.416879,6.470972 -7.953091,19.130074 -6.718218,24.050199 1.43654,5.723633 4.975752,6.519988 10.788055,2.427411 z m 86.845941,9.174525 c -6.63962,-6.639612 -1.67281,-25.618379 10.05878,-38.435859 6.39919,-6.991496 13.23389,-10.565613 20.23152,-10.579808 2.64866,-0.0054 5.73447,-0.501457 6.85736,-1.10241 3.98496,-2.132683 4.27262,0.299443 1.39347,11.781407 -2.67768,10.678499 -6.56657,28.694766 -6.56657,30.421313 0,1.676768 3.1336,0.889799 6.41111,-1.610079 3.70869,-2.828756 4.58889,-3.059494 4.58889,-1.202948 0,1.958618 -6.93695,8.209094 -11.82677,10.656413 -6.3968,3.201548 -8.6015,2.537866 -8.98073,-2.703465 -0.16912,-2.3375 -0.55436,-4.25 -0.85609,-4.25 -0.30173,0 -2.18836,1.288343 -4.19251,2.862985 -8.02297,6.303586 -13.61709,7.663827 -17.11846,4.162451 z m 17.15406,-9.174525 c 1.47372,-1.037683 3.61427,-3.399192 4.75677,-5.247796 2.37682,-3.845767 8.47278,-26.13224 7.55436,-27.618274 -2.03088,-3.286032 -12.58765,0.831031 -16.38097,6.38846 -4.41688,6.470972 -7.95309,19.130074 -6.71822,24.050199 1.43654,5.723633 4.97576,6.519988 10.78806,2.427411 z m 62.47549,9.320348 c -2.05159,-2.266973 -2.09511,-6.061311 -0.15499,-13.50995 2.55247,-9.799587 2.5529,-9.798812 -5.25,-9.456999 -6.75,0.29569 -6.75,0.29569 -9.75,11.79569 -3,11.5 -3,11.5 -6.88178,11.818221 -2.13498,0.175022 -4.24927,-0.04998 -4.69842,-0.5 -0.44916,-0.450021 1.39871,-9.593221 4.10637,-20.318221 2.70766,-10.725 4.93445,-19.8375 4.94842,-20.25 0.0533,-1.573927 -3.4196,-0.647954 -6.56348,1.75 -3.36385,2.565733 -5.41111,3.177274 -5.41111,1.616362 0,-1.445594 7.60299,-7.873172 11.9151,-10.07305 8.8304,-4.504936 10.93428,-1.930254 8.60037,10.524986 -0.87583,4.674003 -1.32354,8.933228 -0.99493,9.464944 0.88901,1.438438 12.05144,1.199264 13.21913,-0.283242 0.5415,-0.6875 1.29737,-2.6 1.67969,-4.25 0.38233,-1.65 1.58843,-6.0375 2.68023,-9.75 1.9851,-6.75 1.9851,-6.75 5.97414,-6.75 2.39897,0 4.19271,0.530751 4.49999,1.331504 0.28102,0.732327 -1.48805,8.719827 -3.93126,17.75 -2.44322,9.030173 -4.72332,17.665878 -5.0669,19.190455 -0.95257,4.226888 1.76917,4.589358 6.41665,0.854542 4.3756,-3.516329 5.00779,-3.731421 5.00779,-1.703824 0,1.471017 -8.83162,9.437084 -12.68426,11.441128 -3.14881,1.63793 -5.7658,1.401348 -7.66075,-0.692546 z m 75.85855,-0.156297 c -2.52319,-2.788093 -1.63747,-9.404942 3.41085,-25.481201 3.35587,-10.686682 3.8415,-13.19644 2.76231,-14.275635 -1.0792,-1.079195 -2.05011,-0.811931 -5.52259,1.520213 -6.47238,4.346903 -8.72841,8.612186 -12.8911,24.372124 -3.79016,14.349537 -3.79016,14.349537 -8.03158,14.657035 -5.37682,0.389812 -5.37365,0.981371 -0.1139,-21.252589 2.27014,-9.59632 3.84056,-18.195693 3.48981,-19.109717 -0.59095,-1.539993 -0.83863,-1.534425 -3.37753,0.07593 -8.49279,5.386746 -11.13275,10.227973 -15.0063,27.519011 -2.79127,12.459867 -2.79127,12.459867 -6.64417,12.778088 -2.11909,0.175022 -4.21349,-0.04998 -4.65422,-0.5 -0.44072,-0.450021 1.18739,-9.368221 3.61803,-19.818221 5.33841,-22.951253 5.15896,-24.698173 -1.90037,-18.5 -3.81114,3.346223 -4.65278,3.638608 -4.65278,1.616362 0,-1.883897 6.988,-8.05943 12.03093,-10.63214 2.26657,-1.156321 5.32435,-1.963311 6.79506,-1.793312 2.56161,0.296097 2.66224,0.529774 2.39408,5.55909 -0.15397,2.8875 -0.01,5.25 0.32059,5.25 0.33029,0 2.70626,-1.74955 5.27993,-3.887888 10.95199,-9.099467 17.17941,-9.430101 17.17941,-0.912112 0,4.317204 0.86121,4.720619 3.59501,1.684014 2.64573,-2.938775 11.45311,-7.863299 14.08356,-7.87463 1.19822,-0.0052 2.93836,0.750399 3.86698,1.679022 2.30383,2.303834 1.53583,7.63052 -3.36107,23.311594 -5.43361,17.399741 -5.53657,17.92766 -3.6385,18.656019 1.02865,0.394729 2.91676,-0.678447 5.31673,-3.021959 2.04689,-1.998733 4.04014,-3.63406 4.42945,-3.63406 1.9382,0 0.22162,3.045719 -4.04216,7.171998 -7.46689,7.22609 -11.40771,8.521192 -14.73646,4.842964 z m 104.37451,0.485396 c -3.93109,-2.136507 -5.26813,-6.426753 -4.57595,-14.683103 1.08132,-12.897916 10.12323,-27.84797 19.89806,-32.899777 5.32678,-2.752974 11.26783,-2.530395 14.33529,0.537067 4.04073,4.04073 3.17527,9.86608 -2.34525,15.785559 -2.55542,2.740104 -2.55542,2.740104 0.6433,3.855184 3.70561,1.291782 5.1565,3.51142 5.1565,7.88863 0,4.262151 -2.10092,7.971093 -7.0457,12.438404 -8.32219,7.518601 -19.61398,10.584777 -26.06625,7.078036 z m 15.21407,-4.758429 c 3.58376,-2.381601 7.89788,-9.670061 7.89788,-13.343035 0,-1.197529 -0.81996,-3.18993 -1.82213,-4.427557 -1.8002,-2.223155 -1.88251,-2.230173 -6.84102,-0.58322 -7.22576,2.40001 -9.33685,4.710015 -9.33685,10.21658 0,6.050919 2.31174,10.334274 5.60212,10.37999 0.60616,0.0084 2.63116,-1.000819 4.5,-2.242758 z m 0.72858,-24.426372 c 3.66848,-2.798082 7.15972,-7.891909 7.16556,-10.454773 0.002,-0.901569 -0.83137,-2.670539 -1.85207,-3.931045 -1.70132,-2.101039 -2.11608,-2.184024 -4.9822,-0.996837 -3.59547,1.489293 -7.68477,8.882044 -8.76327,15.842483 -0.66245,4.275385 -0.66245,4.275385 2.21498,3.181387 1.58259,-0.601699 4.38024,-2.240245 6.217,-3.641215 z m 73.68284,28.699405 c -2.52319,-2.788093 -1.63747,-9.404942 3.41085,-25.481201 3.35587,-10.686682 3.8415,-13.19644 2.76231,-14.275635 -1.0792,-1.079195 -2.05011,-0.811931 -5.52259,1.520213 -6.47238,4.346903 -8.72841,8.612186 -12.8911,24.372124 -3.79016,14.349537 -3.79016,14.349537 -8.03158,14.657035 -5.37682,0.389812 -5.37365,0.981371 -0.1139,-21.252589 2.27014,-9.59632 3.84056,-18.195693 3.48981,-19.109717 -0.59095,-1.539993 -0.83863,-1.534425 -3.37753,0.07593 -8.49279,5.386746 -11.13275,10.227973 -15.0063,27.519011 -2.79127,12.459867 -2.79127,12.459867 -6.64417,12.778088 -2.11909,0.175022 -4.21349,-0.04998 -4.65422,-0.5 -0.44072,-0.450021 1.18739,-9.368221 3.61803,-19.818221 5.33841,-22.951253 5.15896,-24.698173 -1.90037,-18.5 -3.81114,3.346223 -4.65278,3.638608 -4.65278,1.616362 0,-1.883897 6.988,-8.05943 12.03093,-10.63214 2.26657,-1.156321 5.32435,-1.963311 6.79506,-1.793312 2.56161,0.296097 2.66224,0.529774 2.39408,5.55909 -0.15397,2.8875 -0.01,5.25 0.32059,5.25 0.33029,0 2.70626,-1.74955 5.27993,-3.887888 10.95199,-9.099467 17.17941,-9.430101 17.17941,-0.912112 0,4.317204 0.86121,4.720619 3.59501,1.684014 2.64573,-2.938775 11.45311,-7.863299 14.08356,-7.87463 1.19822,-0.0052 2.93836,0.750399 3.86698,1.679022 2.30383,2.303834 1.53583,7.63052 -3.36107,23.311594 -5.43361,17.399741 -5.53657,17.92766 -3.6385,18.656019 1.02865,0.394729 2.91676,-0.678447 5.31673,-3.021959 2.04689,-1.998733 4.04014,-3.63406 4.42945,-3.63406 1.9382,0 0.22162,3.045719 -4.04216,7.171998 -7.46689,7.22609 -11.40771,8.521192 -14.73646,4.842964 z m 30.14448,-1.01036 c -4.79042,-4.206051 -6.01431,-7.780912 -5.43514,-15.875576 1.86872,-26.117734 32.12501,-43.421456 40.96822,-23.429922 5.66123,12.79815 -3.33666,33.096019 -17.6911,39.90843 -7.27453,3.452389 -13.46134,3.243319 -17.84198,-0.602932 z m 20.10953,-5.718658 c 8.39282,-9.400253 9.5637,-30.963056 1.98843,-36.61881 -2.61672,-1.953662 -2.89526,-1.971141 -6.2114,-0.389783 -10.99905,5.24508 -15.48904,30.869099 -6.91199,39.446152 3.23499,3.234982 6.75915,2.463506 11.13496,-2.437559 z"
       style="fill:#2d2d2d" />
    <text
       id="text4163"
       y="145.69315"
       x="16.073679"
       style="font-style:normal;font-weight:normal;font-size:80px;line-height:125%;font-family:sans-serif;letter-spacing:0px;word-spacing:0px;fill:#2d2d2d;fill-opacity:1;stroke:none;stroke-width:1px;stroke-linecap:butt;stroke-linejoin:miter;stroke-opacity:1"
       xml:space="preserve"><tspan
         style="font-size:40px;fill:#2d2d2d;fill-opacity:1"
         y="145.69315"
         x="16.073679"
         id="tspan4165">контрактные автозапчасти</tspan></text>
  </g>
</svg>
