<?xml version="1.0" encoding="UTF-8" standalone="no"?>
<svg
   xmlns:dc="http://purl.org/dc/elements/1.1/"
   xmlns:cc="http://creativecommons.org/ns#"
   xmlns:rdf="http://www.w3.org/1999/02/22-rdf-syntax-ns#"
   xmlns:svg="http://www.w3.org/2000/svg"
   xmlns="http://www.w3.org/2000/svg"
   xmlns:sodipodi="http://sodipodi.sourceforge.net/DTD/sodipodi-0.dtd"
   xmlns:inkscape="http://www.inkscape.org/namespaces/inkscape"
   viewBox="0 0 902.59798 170.91949"
   height="170.91949"
   width="902.59796"
   version="1.1"
   id="svg4136"
   inkscape:version="0.91 r13725"
   sodipodi:docname="logo.svg">
  <sodipodi:namedview
     pagecolor="#ffffff"
     bordercolor="#666666"
     borderopacity="1"
     objecttolerance="10"
     gridtolerance="10"
     guidetolerance="10"
     inkscape:pageopacity="0"
     inkscape:pageshadow="2"
     inkscape:window-width="1600"
     inkscape:window-height="825"
     id="namedview10"
     showgrid="false"
     fit-margin-left="10"
     fit-margin-top="1"
     fit-margin-bottom="1"
     fit-margin-right="10"
     inkscape:zoom="0.79327732"
     inkscape:cx="460.85492"
     inkscape:cy="154.95463"
     inkscape:window-x="-9"
     inkscape:window-y="-9"
     inkscape:window-maximized="1"
     inkscape:current-layer="g4217" />
  <metadata
     id="metadata4142">
    <rdf:RDF>
      <cc:Work
         rdf:about="">
        <dc:format>image/svg+xml</dc:format>
        <dc:type
           rdf:resource="http://purl.org/dc/dcmitype/StillImage" />
        <dc:title></dc:title>
      </cc:Work>
    </rdf:RDF>
  </metadata>
  <defs
     id="defs4140" />
  <text
     xml:space="preserve"
     style="font-style:normal;font-variant:normal;font-weight:bold;font-stretch:normal;font-size:106.25px;line-height:125%;font-family:Georgia;-inkscape-font-specification:'Georgia Bold';letter-spacing:0px;word-spacing:0px;fill:#d9d7d9;fill-opacity:1;stroke:#000000;stroke-width:2;stroke-linecap:butt;stroke-linejoin:miter;stroke-miterlimit:4;stroke-dasharray:none;stroke-opacity:1"
     x="7.4202881"
     y="90.502121"
     id="text4138"
     sodipodi:linespacing="125%"><tspan
       sodipodi:role="line"
       id="tspan4140"
       x="7.4202881"
       y="90.502121"
       style="font-style:normal;font-variant:normal;font-weight:bold;font-stretch:normal;font-size:106.25px;font-family:Georgia;-inkscape-font-specification:'Georgia Bold';fill:#d9d7d9;fill-opacity:1;stroke:#000000;stroke-width:2;stroke-miterlimit:4;stroke-dasharray:none;stroke-opacity:1">ГарантАвто</tspan></text>
  <text
     xml:space="preserve"
     style="font-style:normal;font-variant:normal;font-weight:bold;font-stretch:normal;font-size:40px;line-height:125%;font-family:sans-serif;-inkscape-font-specification:'sans-serif Bold';letter-spacing:0px;word-spacing:0px;fill:#d9d7d9;fill-opacity:1;stroke:#000000;stroke-width:1px;stroke-linecap:butt;stroke-linejoin:miter;stroke-opacity:1"
     x="31.333862"
     y="148.48941"
     id="text4142"
     sodipodi:linespacing="125%"><tspan
       sodipodi:role="line"
       id="tspan4144"
       x="31.333862"
       y="148.48941">контрактные автозапчасти</tspan></text>
  <rect
     style="opacity:0.58800001;fill:#000000;fill-opacity:0;stroke:none;stroke-width:2;stroke-linecap:round;stroke-miterlimit:4;stroke-dasharray:none;stroke-dashoffset:0;stroke-opacity:1"
     id="rect4156"
     width="597.52118"
     height="168.91949"
     x="44.633789"
     y="1" />
  <flowRoot
     xml:space="preserve"
     id="flowRoot4178"
     style="font-style:normal;font-weight:normal;font-size:80px;line-height:125%;font-family:sans-serif;letter-spacing:0px;word-spacing:0px;fill:#000000;fill-opacity:1;stroke:none;stroke-width:1px;stroke-linecap:butt;stroke-linejoin:miter;stroke-opacity:1"
     transform="translate(-2.6094898,-8.2299806e-7)"><flowRegion
       id="flowRegion4180"><rect
         id="rect4182"
         width="829.47034"
         height="332.7966"
         x="-92.023308"
         y="-68.593216" /></flowRegion><flowPara
       id="flowPara4184" /></flowRoot>  <g
     id="g4217"
     transform="translate(-139.29554,-14.496822)">
    <g
       id="g4717"
       transform="matrix(0.35493566,0,0,0.35493566,1181.7873,190.22627)"
       style="fill:#d9d7d9;fill-opacity:1;stroke:#000000;stroke-opacity:1;stroke-width:2.12714609;stroke-miterlimit:4;stroke-dasharray:none">
      <path
         style="fill-opacity:1;fill:#d9d7d9;stroke:#000000;stroke-opacity:1;stroke-width:2.12714609;stroke-miterlimit:4;stroke-dasharray:none"
         d="m -522.99104,-34.83909 -5.44294,-4.95685 -2.61177,2.50224 c -3.45594,3.311 -4.97227,3.16022 -8.89231,-0.88424 -3.13346,-3.23291 -3.25158,-3.63241 -2.60474,-8.80955 l 0.67757,-5.42308 -22.84143,-21.34183 c -34.81886,-32.53291 -45.39689,-43.11809 -44.56681,-44.59693 0.99623,-1.77483 13.28551,-14.44213 14.01114,-14.44213 0.32194,0 1.59353,0.94715 2.82576,2.10477 2.82738,2.65618 4.04088,1.91264 4.64404,-2.8455 1.82959,-14.43307 -8.72991,-35.53971 -26.89539,-53.75927 -12.13681,-12.17295 -121.47087,-115 -122.27732,-115 -0.42408,0 -7.34011,7.02831 -15.36896,15.61846 l -14.59792,15.61847 2.93051,2.8076 c 3.91095,3.74693 4.55271,6.1359 2.3131,8.61064 -1.12109,1.23879 -1.70111,3.15184 -1.50949,4.97869 0.37192,3.54567 -1.30141,5.86614 -4.23017,5.86614 -1.40691,0 -10.94884,-8.22571 -27.97533,-24.11638 l -25.84014,-24.11639 4.44206,-4.63361 c 4.18782,-4.3684 112.74061,-121.17698 113.40972,-122.03488 0.35553,-0.45585 2.82793,1.7976 31.59377,28.79589 11.4125,10.71125 20.75,20.22209 20.75,21.1352 0,2.38214 -3.23169,4.97017 -6.2063,4.97017 -1.40184,0 -3.10901,0.675 -3.7937,1.5 -1.915,2.30743 -4.89988,1.79509 -8.63185,-1.48162 l -3.39588,-2.98162 -15.08458,16.11606 -15.08458,16.11607 11.29229,10.61555 c 6.21077,5.83856 33.14257,31.26287 59.84845,56.49847 26.70588,25.2356 51.83563,48.51317 55.84389,51.72793 15.33301,12.29761 32.54832,19.997 45.09365,20.16772 7.34536,0.0999 12.72781,-1.79851 9.77851,-3.44901 -3.04814,-1.70583 -1.71576,-4.78352 5.21927,-12.05606 l 6.87918,-7.21396 6.87082,5.85908 c 3.77896,3.2225 18.9942,17.15911 33.81166,30.97024 25.62398,23.88373 27.1148,25.09816 30.5,24.84537 1.95754,-0.14617 4.5519,-0.48728 5.76523,-0.75802 1.51164,-0.3373 3.32164,0.48723 5.75,2.61937 4.02011,3.5297 4.43498,5.78807 1.54394,8.40443 -2.92592,2.64792 -2.53861,3.73276 3,8.40299 2.75,2.31883 4.99292,4.97677 4.98427,5.90654 -0.009,0.92976 -3.37244,5.34848 -7.4751,9.81939 -6.41495,6.99075 -7.88718,9.31123 -10.51485,16.57315 -8.48127,23.43912 -26.27012,42.60276 -51.32242,55.2888 -8.8071,4.45976 -10.71297,5.9632 -19.305,15.2287 -5.24325,5.65424 -10.05827,10.26 -10.70004,10.23504 -0.64177,-0.025 -3.61619,-2.27598 -6.60981,-5.00224 z m 29.94295,-35.58221 c 18.17169,-5.11309 32.59037,-19.87407 37.52466,-38.4155 4.45208,-16.72948 -0.75638,-36.86816 -12.87034,-49.76351 -21.02509,-22.38129 -55.6244,-23.10995 -77.1104,-1.62396 -10.63244,10.63244 -15.54392,22.80932 -15.54392,38.53757 0,35.60181 33.61142,60.94155 68,51.2654 z m -67.88705,-94.82621 c 4.0235,-2.66263 8.28679,-9.09707 9.31773,-14.06296 0.77436,-3.72996 -1.6087,-6.15275 -18.93068,-19.24632 -21.98086,-16.61519 -55.62601,-45.4902 -100.4806,-86.23467 -31.27612,-28.41022 -30.79231,-28 -33.02228,-28 -2.70803,0 -5.99712,3.47509 -5.99712,6.33626 0,2.46714 -0.64402,1.80906 51,52.11351 34.25208,33.36363 54.51266,54.53878 71.00071,74.20567 7.30595,8.71451 14.12776,16.59831 15.15957,17.51955 2.27485,2.03108 6.21999,1.16267 11.95267,-2.63104 z m -169.11295,-152.62798 c 6.04775,-2.74179 8.81278,-5.45766 11.62258,-11.41597 7.36736,-15.62281 -3.68896,-33.52079 -20.6883,-33.49023 -16.49517,0.0297 -27.9647,15.95028 -22.50753,31.24226 4.5897,12.86116 19.30087,19.22771 31.57325,13.66394 z m -17.5,-4.7967 c -4.75782,-2.1848 -6.88992,-4.41489 -8.96186,-9.37375 -2.71173,-6.49008 -1.33397,-14.99629 3.25,-20.06533 4.67428,-5.16891 14.68004,-7.18272 21.5096,-4.32915 10.32374,4.31354 14.10895,19.18271 7.1919,28.25142 -5.21641,6.83908 -14.99832,9.18644 -22.98964,5.51681 z m 15.19731,-6.84051 c 2.7715,-1.81596 5.30269,-6.23671 5.30269,-9.26122 0,-7.11141 -6.62792,-13.47243 -13.20317,-12.6715 -8.95789,1.09116 -13.55051,8.90106 -9.98037,16.97194 3.20023,7.23466 11.0758,9.41962 17.88085,4.96078 z m -44.32636,288.20901 c -8.48738,-9.1271 -10.83582,-11.02928 -17.82319,-14.4363 -27.0275,-13.17855 -46.00057,-33.91738 -54.02366,-59.05147 -1.16208,-3.64049 -3.32698,-7.19047 -6.40325,-10.5 -2.55617,-2.75 -6.19736,-6.69268 -8.09153,-8.7615 l -3.44395,-3.7615 5.77293,-5.8338 5.77292,-5.8338 -2.7214,-3.2342 -2.7214,-3.23421 3.96438,-3.96438 3.96439,-3.96439 5.66388,0.88819 5.66389,0.88818 26.77752,-24.99227 c 28.8576,-26.93367 39.82094,-36.69632 41.20956,-36.69632 1.20421,0 14.06796,13.98392 14.06796,15.29299 0,0.57724 -0.71233,1.83665 -1.58296,2.79868 -2.62301,2.89839 1.35117,4.23052 10.98648,3.68264 16.80312,-0.95546 36.24308,-11.6933 56.29368,-31.09436 l 8.1972,-7.93164 3.8028,3.01567 c 2.09154,1.65862 4.67272,3.97926 5.73596,5.15697 1.6697,1.84948 1.73784,2.32196 0.5,3.46687 -3.71444,3.43558 -25.97632,21.43032 -39.70801,32.09681 -9.92884,7.71252 -15.48483,12.70184 -15.87483,14.25572 -0.91504,3.6458 4.34434,13.09853 9.17804,16.49578 2.2018,1.54748 5.62544,3.07685 7.60809,3.39859 l 3.60482,0.58498 13.23202,-15.65048 c 7.27762,-8.60776 18.43878,-21.28724 24.80259,-28.17663 l 11.57056,-12.52615 6.0674,6.0674 6.06739,6.06739 -11.22033,10.56202 c -19.56094,18.41328 -30.48631,34.33331 -33.88255,49.37231 -1.56241,6.91857 -1.28258,15.38756 0.54578,16.51755 0.44472,0.27485 1.61346,-0.38966 2.59721,-1.47669 0.98375,-1.08703 2.29346,-1.97642 2.91047,-1.97642 1.71782,0 14.56819,13.33704 14.56819,15.11992 0,1.54257 -12.82321,14.05892 -48.5,47.33939 l -18,16.79099 0,6.17999 c 0,5.85253 -0.19245,6.34926 -3.63202,9.37484 -1.9976,1.75718 -3.99798,3.19487 -4.44528,3.19487 -0.44729,0 -2.06545,-1.19967 -3.5959,-2.66594 l -2.78264,-2.66594 -5.46222,5.16594 c -3.00422,2.84127 -5.90622,5.16594 -6.44889,5.16594 -0.54268,0 -5.38562,-4.7305 -10.7621,-10.51223 z m 14.60124,-29.56718 c 13.99001,-3.22368 28.27406,-14.66684 34.94498,-27.99494 4.97431,-9.93836 6.46935,-17.11432 5.81805,-27.92565 -1.36222,-22.612 -16.89354,-42.0349 -38.73522,-48.44082 -7.26997,-2.13221 -21.83408,-2.134 -29,-0.004 -23.4427,6.96951 -39.29389,27.92393 -39.29389,51.94439 0,24.01835 16.50129,45.75955 39.40622,51.91945 6.33211,1.70292 20.49747,1.96721 26.85986,0.50114 z m 243.96266,-180.98574 c -1.51355,-1.51355 -1.90232,-2.80647 -1.45554,-4.84066 0.41249,-1.87804 0.11021,-3.18997 -0.93485,-4.05729 -2.33504,-1.93791 -1.86884,-4.35195 1.45554,-7.5369 1.65,-1.5808 3,-3.28928 3,-3.79663 0,-0.90053 -27.76183,-30.8957 -29.17023,-31.51688 -0.63291,-0.27914 -27.09846,24.27442 -46.57782,43.21282 l -7.24806,7.04677 -6.57894,-6.47304 -6.57894,-6.47304 20.07699,-19.52379 c 21.05942,-20.47914 22.09129,-21.96192 18.077,-25.97621 -4.06333,-4.06333 -5.78765,-3.00691 -27.696,16.96828 l -20.804,18.96829 -6.29468,-6.21829 -6.29467,-6.21828 3.29467,-2.93948 c 10.06248,-8.97765 51.79468,-48.93826 51.79468,-49.59591 0,-0.42763 -6.57044,-7.80133 -14.60097,-16.386 l -14.60097,-15.60849 -3.43383,3.01494 c -3.95187,3.46979 -6.35427,3.78842 -8.73438,1.15842 -1.01669,-1.12342 -2.56971,-1.68647 -3.93292,-1.42588 -2.74777,0.52527 -5.99845,-2.71708 -5.52729,-5.51312 0.1817,-1.07825 11.74715,-12.64321 25.70101,-25.69991 l 25.37065,-23.73946 4.84289,4.86745 c 2.66359,2.67709 29.37304,31.19244 59.35432,63.36744 l 54.51143,58.5 -5.22497,4.90992 c -32.97917,30.99062 -46.90832,43.59008 -48.1904,43.59008 -0.84401,0 -2.46389,-0.92932 -3.59972,-2.06515 z m -14.31245,-67.75784 c 13.64131,-7.01428 17.21132,-24.51341 7.41316,-36.33722 -6.92168,-8.35265 -19.92235,-10.46677 -29.74002,-4.83619 -11.8675,6.80619 -15.28557,22.80778 -7.24338,33.9097 6.875,9.49067 19.30239,12.54337 29.57024,7.26371 z m -18.16377,-4.05667 c -4.65075,-2.11255 -9.19577,-7.06714 -10.04244,-10.94741 -0.32078,-1.47011 -0.76665,-3.2618 -0.99082,-3.98153 -0.69593,-2.2344 1.54753,-10.34461 3.6963,-13.36227 7.06435,-9.92097 25.74498,-8.72283 31.29365,2.00712 5.11801,9.89714 1.11783,21.74545 -8.87395,26.28409 -5.12996,2.33022 -9.95278,2.33022 -15.08274,0 z m 15.62391,-7.90278 c 6.12333,-5.4712 4.79288,-16.15067 -2.43962,-19.58272 -5.40199,-2.56341 -9.16565,-2.10262 -13.19227,1.61516 -8.68498,8.01886 -3.60737,20.73576 8.28357,20.74626 3.22162,0.003 4.97896,-0.66168 7.34832,-2.7787 z m -298.69423,30.44002 c -1.54653,-1.33026 -2.48054,-2.95063 -2.16157,-3.75 0.50925,-1.27624 108.28271,-117.62014 119.83332,-129.36279 l 4.87417,-4.95521 2.57994,2.42374 c 1.78326,1.67528 2.48822,3.25824 2.28289,5.12616 -0.21938,1.99579 -15.33237,18.85456 -57.79706,64.47352 -31.625,33.9741 -58.90313,63.25967 -60.61808,65.07904 -3.69788,3.92307 -5.34918,4.10035 -8.99361,0.96554 z m 324.61169,-57.24064 c -71.87199,-77.25816 -68.20919,-73.14521 -67.45551,-75.74565 0.6279,-2.16646 3.99159,-5.67129 5.44289,-5.67129 0.6419,0 112.33509,119.32512 122.04733,130.38675 3.07217,3.49901 3.12742,3.71686 1.55237,6.1207 -1.19463,1.82322 -2.49972,2.48265 -4.86013,2.4557 -2.96368,-0.0338 -7.59167,-4.72867 -56.72695,-57.54621 z m -336.41668,48.46994 c -1.47752,-1.16222 -2.55071,-2.66734 -2.38486,-3.34472 0.58138,-2.37454 126.30212,-136.59234 127.68862,-136.31868 0.77053,0.15209 2.32241,1.51187 3.44862,3.02173 l 2.04765,2.74522 -2.53014,2.75478 c -31.33372,34.11575 -124.14776,133.25479 -124.75321,133.25479 -0.45666,0 -2.03916,-0.9509 -3.51668,-2.11312 z m 341.41668,-66.3345 c -34.375,-37.01445 -62.64347,-68.0205 -62.81882,-68.90232 -0.17536,-0.88183 0.87986,-2.80201 2.34492,-4.26707 l 2.66374,-2.66374 3.76128,3.89038 c 16.87524,17.45443 124.04888,133.53905 124.04888,134.36295 0,0.97229 -5.85367,5.11116 -7,4.94938 -0.275,-0.0388 -28.625,-30.35512 -63,-67.36958 z m -352.47663,56.0619 c -1.38785,-1.38785 -2.52337,-3.01066 -2.52337,-3.60624 0,-0.78515 96.18673,-105.01512 123.60359,-133.93945 2.0164,-2.12727 2.62498,-2.28548 4.86528,-1.26473 1.40832,0.64168 3.05614,2.2543 3.66181,3.5836 1.04099,2.28473 -2.32723,6.10032 -61.58492,69.76473 -34.47737,37.04129 -63.31903,67.49128 -64.09258,67.66663 -0.77354,0.17536 -2.54196,-0.81669 -3.92981,-2.20454 z m 363.47663,-65.77426 c -34.375,-36.9284 -62.64017,-67.9468 -62.81149,-68.92979 -0.40469,-2.32196 3.41379,-6.12262 5.74855,-5.72172 0.99774,0.17132 30.00244,30.58981 64.45488,67.59664 54.58229,58.62914 62.50906,67.53131 61.6167,69.19871 -0.96228,1.79804 -4.81871,5.02664 -5.98115,5.00742 -0.29012,-0.005 -28.65249,-30.22287 -63.02749,-67.15126 z m -369.14913,51.42792 c -1.40673,-1.52237 -2.80871,-3.48815 -3.11551,-4.3684 -0.38523,-1.10527 5.68005,-8.23079 19.60341,-23.03016 11.08868,-11.78634 36.98685,-39.64113 57.55149,-61.89954 20.56464,-22.25841 37.96592,-40.60836 38.66951,-40.77766 0.70358,-0.16931 2.77797,1.03683 4.60974,2.6803 l 3.33049,2.98812 -3.08918,3.3197 c -1.69905,1.82584 -27.52671,29.6447 -57.3948,61.8197 -29.86809,32.175 -55.04854,59.29557 -55.95654,60.26794 -1.57067,1.68201 -1.77524,1.6334 -4.20861,-1 z m 380.42443,-61.96139 c -64.3707,-69.24028 -60.59731,-64.42363 -53.59239,-68.4095 l 2.81709,-1.60295 7.5,8.1142 c 43.30328,46.84956 82.26146,88.82098 93.83406,101.0917 7.78063,8.25 14.15095,15.692 14.15627,16.53777 0.005,0.84578 -1.22783,2.98588 -2.74033,4.75577 l -2.75,3.218 -59.2247,-63.70499 z"
         id="path4719"
         inkscape:connector-curvature="0" />
    </g>
  </g>
</svg>
